# xmcd
#
# Track frame offsets:
#	150
#	14451
#	29243
#	43573
#	56340
#	67028
#	84912
#	106174
#	117162
#	136022
#	148295
#	165920
#	179882
#	191814
#	205929
#	224469
#	237963
#	248755
#
# Disc length: 3471 seconds
#
# Revision: 1
# Processed by: cddbd v1.5.2PL0 Copyright (c) Steve Scherf et al.
# Submitted via: audiograbber 1.83.01
#
DISCID=080d8d12
DTITLE=Hank Williams - The Unreleased Recordings CD2
DYEAR=2008
DGENRE=Country
TTITLE0=I Can't Help It (If I'm Still In Love With You)
TTITLE1=Seaman's Blues
TTITLE2=The Prodigal Son
TTITLE3=Cherrokee Boogie
TTITLE4=Where He Leads Me
TTITLE5=From Jerusalem to Jericho
TTITLE6=Cool Water
TTITLE7=I've Got My One-Way Ticket to the Sky
TTITLE8=Searching for a Soldier's Grave
TTITLE9=California Zephyr
TTITLE10=Softly and Tenderly
TTITLE11=Just When I Needed You
TTITLE12=Gathering Flowers for the Master's Bouquet
TTITLE13=Why Should We Try Any More
TTITLE14=The Old Country Church
TTITLE15=May You Never Be Alone
TTITLE16=When the Fire Comes Down
TTITLE17=Lonely Tombs
EXTD=
EXTT0=
EXTT1=
EXTT2=
EXTT3=
EXTT4=
EXTT5=
EXTT6=
EXTT7=
EXTT8=
EXTT9=
EXTT10=
EXTT11=
EXTT12=
EXTT13=
EXTT14=
EXTT15=
EXTT16=
EXTT17=
PLAYORDER=
